# xmcd CD database file
#
# Track frame offsets:
#	150
#	38385
#	70424
#	80890
#	102449
#	116119
#
# Disc length: 1857 seconds
#
# Revision: 0
# Processed by: cddbd v1.5.2PL0 Copyright (c) Steve Scherf et al.
# Submitted via: CDex 1.70beta2
#
DISCID=4e073f06
DTITLE=Fania All Stars - Live at The Red Garter Vol. 2
DYEAR=1972
DGENRE=Salsa
TTITLE0=Son Cuero y Boogaloo
TTITLE1=Noche
TTITLE2=Red Garter Strut
TTITLE3=Kikapoo Joy Juice
TTITLE4=If This World Were Mine
TTITLE5=Richie's Bag
EXTD=YEAR: 1972
EXTT0=
EXTT1=
EXTT2=
EXTT3=
EXTT4=
EXTT5=
PLAYORDER=
